<?xml version="1.0" standalone="no"?>
<svg xmlns="http://www.w3.org/2000/svg" viewBox="0 0 143.641 36" width="143.641" height="36"><g fill="#d61216" color="#d61216" transform="translate(0 5.166666666666666) scale(0.5833334)"><svg width="48.0" height="44.0" x="0.0" y="0.0" viewBox="0 0 48 44"><path fill="currentColor" fill-rule="evenodd" d="M24.763 8.596c1.868.282 3.747.587 5.59 1.01a7.996 7.996 0 0 1 4.921 3.464 18.1 18.1 0 0 1 3.464 6.87 19.034 19.034 0 0 1-1.256 9.771 21.722 21.722 0 0 1-16.394 14.07 4.375 4.375 0 0 1-.787.105c-.74.012-1.48 0-2.22 0A13.011 13.011 0 0 1 6.49 38.954 13.7 13.7 0 0 1 3.812 25.33a24.735 24.735 0 0 1 11.803-14.104 51.061 51.061 0 0 1 7.281-2.584 4.176 4.176 0 0 1 1.867-.047zm8.425-2.944a29.6 29.6 0 0 1 4.404 2.783c.952.822 1.75 1.797 2.373 2.89.892 1.479 1.62 3.064 2.384 4.638a9.342 9.342 0 0 1 .798 4.932 35.376 35.376 0 0 1-3.476 13.694 16.857 16.857 0 0 1-4.885 5.907c-1.034.787-1.973 1.738-3.03 2.513a5.195 5.195 0 0 1-2.09.857 19.77 19.77 0 0 1-3.007.047c2.736-2.114 5.367-3.946 7.762-6.048a13.098 13.098 0 0 0 3.019-4.005 33.365 33.365 0 0 0 3.464-13.376 8.172 8.172 0 0 0-1.609-5.66 7.411 7.411 0 0 1-.834-1.327 12.767 12.767 0 0 0-10.405-7.082 30.114 30.114 0 0 0-7.046.552c-.575.07-1.14.247-1.715.34A24.827 24.827 0 0 0 1.492 21.413c-.329.599-.67 1.198-1.01 1.785l-.258.141a3.787 3.787 0 0 1 .422-3.394c1.01-1.668 2.102-3.276 3.206-4.885.681-.999 1.515-1.903 2.15-2.925a13.644 13.644 0 0 1 5.472-4.65 37.277 37.277 0 0 1 14.28-3.7c2.62-.129 5.191.53 7.434 1.868zM.458 28.744c.282 1.468.67 2.912.799 4.392a13.722 13.722 0 0 0 5.508 9.724c.156.133.303.276.449.42l.22.214-.082.387H5.508l-.74-.387a10.94 10.94 0 0 1-2.067-1.421 11.788 11.788 0 0 1-2.503-3.29l-.186-.374v-8.315c0-.334.033-.663.065-.989l.03-.326.351-.035zM26.035.182c4.545-.646 9.16.446 12.942 3.03.517.317 1.08.598 1.902 1.056v-.046c.834.74 1.621 1.55 2.314 2.43.305.388.599.776.88 1.163a5.12 5.12 0 0 0 .623 1.844 32.307 32.307 0 0 1 2.89 9.301 21.791 21.791 0 0 1-2.408 14.962c-.13.293-.247.575-.364.857-.576.857-1.104 1.738-1.668 2.595A19.433 19.433 0 0 1 38.8 42.12a9.08 9.08 0 0 1-3.946 1.75l-.6-.024-.105-.352a22.258 22.258 0 0 0 8.092-9.712 20.624 20.624 0 0 0 2.642-10.311 43.813 43.813 0 0 0-1.538-9.325 17.739 17.739 0 0 0-8.82-10.699 16.24 16.24 0 0 0-3.946-1.01 28.783 28.783 0 0 0-13.153.423c-.305.059-.61.118-.928.165-.152 0-.317-.024-.47-.06l.06-.246C19.4 1.85 22.675.768 26.034.182zM21.17 10.804c-2.008.34-3.946 1.127-5.93 1.644a8.614 8.614 0 0 0-4.029 2.607 27.953 27.953 0 0 0-6.189 10.523 12.86 12.86 0 0 0 1.62 10.91 12.084 12.084 0 0 0 11.016 5.648A15.704 15.704 0 0 0 25.503 40a30.021 30.021 0 0 0 6.354-5.649 14.187 14.187 0 0 0 4.321-10.84 15.087 15.087 0 0 0-3.018-9.465 4.664 4.664 0 0 0-3.617-2.22c-1.35-.093-2.666-.645-4.005-.833a15.579 15.579 0 0 0-4.368-.188zm11.037 5.945a13.018 13.018 0 0 1 2.055 6.553 16.394 16.394 0 0 1-7.035 13.622 12.786 12.786 0 0 1-11.873 2.478 9.599 9.599 0 0 1-8.033-9.606 12.639 12.639 0 0 1 5.297-11.697 50.238 50.238 0 0 1 4.897-2.76c-.517.505-.998 1.057-1.562 1.504a14.817 14.817 0 0 0-6.095 13.352 7.897 7.897 0 0 0 8.233 7.528c.293-.012.587-.035.88-.082a15.648 15.648 0 0 0 8.832-4.204 11.756 11.756 0 0 0 3.91-12.25 8.719 8.719 0 0 0-7.621-6.4c-1.727-.129-3.465.047-5.203.083a12.015 12.015 0 0 1 5.86-1.527 7.31 7.31 0 0 1 7.458 3.406zm-5.088 1.544a7.957 7.957 0 0 1 3.206 8.232 9.034 9.034 0 0 1-4.228 6.213 21.533 21.533 0 0 1-4.133 2.29 7.145 7.145 0 0 1-9.419-3.629 7.105 7.105 0 0 1-.54-3.875 12.689 12.689 0 0 1 6.048-9.642 7.785 7.785 0 0 1 9.066.41zm-5.919.716a8.27 8.27 0 0 0-6.365 3.136 8.155 8.155 0 0 0-1.703 5.155c-.34 3.054 1.856 5.825 4.92 6.166l.565.035a9.126 9.126 0 0 0 8.89-7.68 5.36 5.36 0 0 0-3.418-6.107c-.94-.305-1.914-.54-2.889-.705zm.412 3.276c2.22.023 3.183.927 3.406 3.276a4.296 4.296 0 0 1-1.973 4.204 4.353 4.353 0 0 1-4.58.729 3.178 3.178 0 0 1-1.808-4.11c.082-.212.188-.435.317-.623a16.95 16.95 0 0 1 1.573-2.161 3.407 3.407 0 0 1 3.065-1.315z"></path></svg></g><path fill="#152452" fill-rule="nonzero" d="M9.43 9.19Q10.13 9.96 11.02 10.51Q11.90 11.06 12.72 11.11L12.72 11.11Q12.72 11.78 12.60 12.14L12.60 12.14Q10.54 12.14 9.29 12.29L9.29 12.29Q8.40 11.16 6.82 9.48Q5.23 7.80 3.77 6.43L3.77 6.43L3.77 9.34Q3.77 10.37 4.07 10.72Q4.37 11.06 5.23 11.11L5.23 11.11Q5.33 11.47 5.33 12.19L5.33 12.19Q3.70 12.14 2.69 12.14L2.69 12.14Q1.49 12.14 0 12.19L0 12.19Q0 11.45 0.12 11.11L0.12 11.11Q0.72 11.06 1.02 10.92Q1.32 10.78 1.44 10.42Q1.56 10.06 1.56 9.34L1.56 9.34L1.56 2.93Q1.56 2.23 1.44 1.87Q1.32 1.51 1.02 1.37Q0.72 1.22 0.12 1.18L0.12 1.18Q0 0.82 0 0.10L0 0.10Q1.54 0.14 2.69 0.14L2.69 0.14Q3.65 0.14 5.33 0.10L5.33 0.10Q5.33 0.84 5.23 1.18L5.23 1.18Q4.37 1.22 4.07 1.56Q3.77 1.90 3.77 2.93L3.77 2.93L3.77 5.86L7.51 2.81Q8.52 1.99 8.52 1.58L8.52 1.58Q8.52 1.22 7.80 1.18L7.80 1.18Q7.68 0.79 7.68 0.10L7.68 0.10Q8.64 0.14 9.89 0.14L9.89 0.14Q11.02 0.14 12.17 0.10L12.17 0.10Q12.17 0.77 12.02 1.18L12.02 1.18Q11.30 1.20 10.67 1.51Q10.03 1.82 9 2.59L9 2.59L5.76 5.35Q7.32 6.84 9.43 9.19L9.43 9.19ZM15.55 12.19Q15.55 11.45 15.67 11.11L15.67 11.11Q16.27 11.06 16.57 10.92Q16.87 10.78 16.99 10.42Q17.11 10.06 17.11 9.34L17.11 9.34L17.11 2.93Q17.11 2.23 16.99 1.87Q16.87 1.51 16.57 1.37Q16.27 1.22 15.67 1.18L15.67 1.18Q15.55 0.82 15.55 0.10L15.55 0.10Q17.09 0.14 18.24 0.14L18.24 0.14Q19.20 0.14 20.88 0.10L20.88 0.10Q20.88 0.84 20.78 1.18L20.78 1.18Q19.92 1.22 19.62 1.56Q19.32 1.90 19.32 2.93L19.32 2.93L19.32 9.34Q19.32 10.37 19.62 10.72Q19.92 11.06 20.78 11.11L20.78 11.11Q20.88 11.47 20.88 12.19L20.88 12.19Q19.25 12.14 18.24 12.14L18.24 12.14Q17.04 12.14 15.55 12.19L15.55 12.19ZM35.18 0.10Q35.11 1.39 35.35 3.22L35.35 3.22Q34.85 3.43 34.18 3.43L34.18 3.43Q34.13 2.28 33.56 1.73Q33 1.18 31.80 1.18L31.80 1.18L30.74 1.18L30.74 9.41Q30.74 10.15 30.88 10.50Q31.01 10.85 31.36 10.99Q31.70 11.14 32.42 11.18L32.42 11.18Q32.54 11.47 32.54 12.19L32.54 12.19Q30.77 12.14 29.64 12.14L29.64 12.14Q28.25 12.14 26.66 12.19L26.66 12.19Q26.66 11.47 26.78 11.18L26.78 11.18Q27.50 11.14 27.88 10.99Q28.25 10.85 28.39 10.49Q28.54 10.13 28.54 9.41L28.54 9.41L28.54 1.18L27.55 1.18Q26.59 1.18 26.08 1.43Q25.56 1.68 25.32 2.14Q25.08 2.59 24.91 3.43L24.91 3.43Q24.14 3.43 23.78 3.22L23.78 3.22Q24.14 1.58 24.14 0.10L24.14 0.10Q25.39 0.14 29.64 0.14L29.64 0.14Q33.96 0.14 35.18 0.10L35.18 0.10ZM48.07 8.74Q48.72 8.86 49.13 9.26L49.13 9.26Q48.70 10.39 48.48 12.17L48.48 12.17L43.85 12.14Q40.39 12.14 38.28 12.19L38.28 12.19Q38.28 11.45 38.40 11.11L38.40 11.11Q39 11.06 39.30 10.92Q39.60 10.78 39.72 10.39Q39.84 10.01 39.84 9.24L39.84 9.24L39.84 2.93Q39.84 2.23 39.71 1.87Q39.58 1.51 39.28 1.37Q38.98 1.22 38.40 1.18L38.40 1.18Q38.28 0.82 38.28 0.10L38.28 0.10Q40.01 0.14 42.05 0.14L42.05 0.14Q46.46 0.14 47.95 0.10L47.95 0.10Q48.22 2.35 48.41 3.07L48.41 3.07Q48 3.34 47.33 3.34L47.33 3.34Q47.23 2.33 46.50 1.75Q45.77 1.18 43.92 1.18L43.92 1.18L42.05 1.18L42.05 5.59L43.25 5.59Q44.52 5.59 45.01 5.30Q45.50 5.02 45.53 4.25L45.53 4.25Q46.06 4.08 46.63 4.08L46.63 4.08Q46.58 4.68 46.58 6.10L46.58 6.10Q46.58 7.63 46.63 8.18L46.63 8.18Q45.98 8.18 45.58 8.04L45.58 8.04Q45.50 7.25 45.01 6.96Q44.52 6.67 43.25 6.67L43.25 6.67L42.05 6.67L42.05 9.19Q42.05 9.96 42.20 10.36Q42.36 10.75 42.76 10.91Q43.15 11.06 43.94 11.06L43.94 11.06L44.09 11.06Q45.48 11.06 46.24 10.82Q46.99 10.58 47.36 10.12Q47.74 9.65 48.07 8.74L48.07 8.74ZM57.41 12.31Q56.09 12.31 55.02 12.05Q53.95 11.78 52.70 11.26L52.70 11.26Q52.97 9.65 52.90 8.47L52.90 8.47Q53.42 8.30 54.19 8.30L54.19 8.30Q54.24 9.79 55.14 10.46Q56.04 11.14 57.67 11.14L57.67 11.14Q59.06 11.14 59.87 10.70Q60.67 10.27 60.67 9.55L60.67 9.55Q60.67 9.05 60.28 8.68Q59.88 8.30 59.32 8.05Q58.75 7.80 57.67 7.42L57.67 7.42Q56.18 6.91 55.28 6.47Q54.38 6.02 53.72 5.24Q53.06 4.46 53.06 3.29L53.06 3.29Q53.06 1.68 54.28 0.84Q55.49 0 57.60 0L57.60 0Q58.73 0 59.84 0.22Q60.96 0.43 61.58 0.77L61.58 0.77Q61.56 1.03 61.56 1.58L61.56 1.58Q61.56 2.66 61.70 3.29L61.70 3.29Q61.20 3.55 60.38 3.55L60.38 3.55Q60.05 2.18 59.29 1.64Q58.54 1.10 57.43 1.10L57.43 1.10Q56.38 1.10 55.72 1.46Q55.06 1.82 55.06 2.52L55.06 2.52Q55.06 3.31 55.82 3.79Q56.59 4.27 58.22 4.85L58.22 4.85Q59.62 5.33 60.50 5.76Q61.39 6.19 62.02 6.92Q62.64 7.66 62.64 8.76L62.64 8.76Q62.64 10.34 61.34 11.33Q60.05 12.31 57.41 12.31L57.41 12.31ZM72.48 12.31Q70.51 12.31 69.37 11.84Q68.23 11.38 67.74 10.43Q67.25 9.48 67.25 7.97L67.25 7.97L67.25 2.98Q67.25 2.23 67.15 1.87Q67.06 1.51 66.80 1.38Q66.55 1.25 66.00 1.18L66.00 1.18Q65.88 0.79 65.88 0.10L65.88 0.10Q67.03 0.14 68.38 0.14L68.38 0.14Q69.72 0.14 71.02 0.10L71.02 0.10Q71.02 0.72 70.92 1.18L70.92 1.18Q70.25 1.25 69.96 1.38Q69.67 1.51 69.56 1.86Q69.46 2.21 69.46 2.98L69.46 2.98L69.46 7.68Q69.46 9.38 70.24 10.25Q71.02 11.11 72.94 11.11L72.94 11.11Q73.51 11.11 74.11 10.93Q74.71 10.75 75.14 10.39L75.14 10.39Q75.60 9.98 75.80 9.30Q76.01 8.62 76.01 7.27L76.01 7.27L76.01 3.50Q76.01 2.59 75.90 2.12Q75.79 1.66 75.48 1.45Q75.17 1.25 74.54 1.18L74.54 1.18Q74.45 0.60 74.45 0.10L74.45 0.10Q75.41 0.14 76.46 0.14L76.46 0.14Q77.40 0.14 78.50 0.10L78.50 0.10Q78.50 0.70 78.38 1.18L78.38 1.18Q77.64 1.25 77.39 1.70Q77.14 2.16 77.14 3.41L77.14 3.41L77.14 7.30Q77.14 8.90 76.88 9.83Q76.63 10.75 75.91 11.33L75.91 11.33Q74.71 12.31 72.48 12.31L72.48 12.31ZM91.63 9.34Q92.28 10.30 92.96 10.69Q93.65 11.09 94.66 11.14L94.66 11.14Q94.66 11.83 94.56 12.14L94.56 12.14Q92.52 12.14 91.10 12.31L91.10 12.31Q90.94 12.02 90.46 11.30L90.46 11.30L89.38 9.55Q88.49 8.06 87.02 7.13L87.02 7.13L86.26 7.15L85.56 7.13L85.56 9.31Q85.56 10.10 85.68 10.49Q85.80 10.87 86.08 11.02Q86.35 11.16 86.93 11.18L86.93 11.18Q87.02 11.47 87.02 12.19L87.02 12.19Q86.14 12.14 84.41 12.14L84.41 12.14Q83.14 12.14 81.79 12.19L81.79 12.19Q81.79 11.52 81.91 11.18L81.91 11.18Q82.51 11.14 82.81 10.99Q83.11 10.85 83.23 10.49Q83.35 10.13 83.35 9.41L83.35 9.41L83.35 2.90Q83.35 1.87 83.06 1.54Q82.78 1.20 81.91 1.15L81.91 1.15Q81.79 0.79 81.79 0.10L81.79 0.10Q82.70 0.14 84.43 0.14L84.43 0.14L86.16 0.12Q87.41 0.07 88.06 0.07L88.06 0.07Q90.36 0.07 91.54 0.96Q92.71 1.85 92.71 3.24L92.71 3.24Q92.71 4.63 91.82 5.53Q90.94 6.43 89.35 6.74L89.35 6.74Q89.95 7.10 90.35 7.57Q90.74 8.04 91.63 9.34L91.63 9.34ZM86.47 5.95Q88.20 5.95 89.30 5.34Q90.41 4.73 90.41 3.55L90.41 3.55Q90.41 1.10 87.05 1.10L87.05 1.10Q86.28 1.10 85.56 1.25L85.56 1.25L85.56 5.88Q86.06 5.95 86.47 5.95L86.47 5.95ZM103.18 1.18L101.35 1.18L101.35 6.10L102.74 6.10Q104.02 6.10 104.51 5.81Q105.00 5.52 105.02 4.75L105.02 4.75Q105.53 4.58 106.10 4.58L106.10 4.58Q106.06 5.74 106.06 6.60L106.06 6.60Q106.06 7.54 106.10 8.69L106.10 8.69Q105.46 8.69 105.05 8.54L105.05 8.54Q104.98 7.73 104.50 7.44Q104.02 7.15 102.74 7.15L102.74 7.15L101.35 7.15L101.35 9.07Q101.35 10.20 101.78 10.63Q102.22 11.06 103.27 11.11L103.27 11.11Q103.39 11.47 103.39 12.19L103.39 12.19Q102.05 12.14 100.61 12.14L100.61 12.14Q98.78 12.14 97.58 12.19L97.58 12.19Q97.58 11.45 97.70 11.11L97.70 11.11Q98.54 11.06 98.84 10.72Q99.14 10.37 99.14 9.34L99.14 9.34L99.14 2.93Q99.14 2.23 99.02 1.87Q98.90 1.51 98.60 1.37Q98.30 1.22 97.70 1.18L97.70 1.18Q97.58 0.82 97.58 0.10L97.58 0.10Q99.50 0.14 101.33 0.14L101.33 0.14Q105.72 0.14 107.21 0.10L107.21 0.10Q107.38 2.14 107.64 3.07L107.64 3.07Q107.23 3.34 106.58 3.34L106.58 3.34Q106.49 2.33 105.76 1.75Q105.02 1.18 103.18 1.18L103.18 1.18Z" transform="translate(36, 11.845)"></path></svg>